<?xml version="1.0" encoding="utf-8"?>
<!-- Generator: Adobe Illustrator 23.0.4, SVG Export Plug-In . SVG Version: 6.00 Build 0)  -->
<svg version="1.1" xmlns="http://www.w3.org/2000/svg" xmlns:xlink="http://www.w3.org/1999/xlink" x="0px" y="0px"
	 viewBox="0 0 1024 1024" style="enable-background:new 0 0 1024 1024;" xml:space="preserve">
<style type="text/css">
	.st0{fill:url(#SVGID_1_);}
	.st1{fill:#FFFFFF;}
</style>
<g id="Layer_3">
	<radialGradient id="SVGID_1_" cx="512" cy="512" r="501.5086" gradientUnits="userSpaceOnUse">
		<stop  offset="1" style="stop-color:#94F1FF"/>
		<stop  offset="1" style="stop-color:#92F1FF"/>
		<stop  offset="1" style="stop-color:#89F2FF"/>
		<stop  offset="1" style="stop-color:#7BF3FF"/>
		<stop  offset="1" style="stop-color:#68F5FF"/>
		<stop  offset="1" style="stop-color:#4EF8FF"/>
		<stop  offset="1" style="stop-color:#2FFBFF"/>
		<stop  offset="1" style="stop-color:#0AFEFF"/>
		<stop  offset="1" style="stop-color:#00FFFF"/>
	</radialGradient>
	<path class="st0" d="M862.64,1013.51H161.36c-82.98,0-150.87-67.89-150.87-150.87V161.36c0-82.98,67.89-150.87,150.87-150.87
		h701.29c82.98,0,150.87,67.89,150.87,150.87v701.29C1013.51,945.62,945.62,1013.51,862.64,1013.51z"/>
</g>
<g id="Layer_2">
	<path class="st1" d="M800.69,353.71l-0.23,0.2c0.07,1.32,0.1,2.64,0.14,3.95c0.23,7.33,0.27,14.72,0.1,22.15
		c-5.26,238.89-192.69,429.81-429.46,429.46c-84.43-0.11-169.8-24.57-234.63-65.6c-1.18-0.75-0.6-2.57,0.8-2.49
		c85.61,4.82,161.84-20.81,217.03-63.2c0.99-0.76,0.49-2.33-0.75-2.41c-16.84-1.21-34.17-4.93-51.24-11.95
		c-45.88-18.85-78.07-54.69-88.23-92.66c-0.25-0.94,0.56-1.82,1.52-1.67c8.28,1.28,17.15,1.98,26.37,1.98
		c11.98,0,23.37-1.17,33.65-3.29c1.36-0.28,1.46-2.25,0.12-2.62c-0.02,0-0.03-0.01-0.05-0.01c-27.08-7.38-48.39-20.85-64.75-35.29
		c-9.05-7.98-16.72-16.57-23.16-25.6c-18.66-26.15-28.16-54.66-27.1-86.95c0.03-0.95,1.01-1.57,1.88-1.2
		c3.34,1.41,6.78,2.76,10.32,4.07c17.23,6.35,34.48,10.54,51.22,12.71c1.34,0.17,2.08-1.5,1.05-2.37
		c-19.6-16.53-37.25-34.4-47.11-55.4c-17.94-38.2-22.28-73.78-8.02-120.97c2.78-9.19,7.8-17.13,12.57-24.7
		c0.52-0.82,1.7-0.84,2.25-0.03c36.64,54.29,101.91,103.77,181.37,131.91c0.35,0.13,0.7,0.25,1.06,0.38
		c45.28,15.91,89.25,25.93,129.75,28.9c0.92,0.07,1.62-0.79,1.4-1.68c-2.98-11.83-4.57-24.21-4.57-36.96
		c0-40.55,16.01-77.4,42.13-104.64c7.79-8.14,16.48-15.42,25.91-21.68c8.21-5.47,16.96-10.15,26.19-13.96
		c17.26-7.16,36.13-11.29,55.92-11.68c1.06-0.03,2.13-0.04,3.2-0.04c18.33,0,35.89,3.18,52.19,9.04c5.45,1.94,10.75,4.19,15.89,6.73
		c16.34,8.03,31.02,18.85,43.39,31.85c0.3,0.31,0.73,0.47,1.16,0.41c6.19-0.82,12.25-1.83,18.14-3.04c0.95-0.18,1.92-0.33,2.84-0.6
		c28.19-8.32,49.16-16.81,72.1-30.83c1.37-0.31,3.81-3.84,5.11-4.07c-12.71,36.39-36.9,67.25-64.64,82.71
		c-1.23,0.69-2.45,2.65-3.69,3.27c-0.04,0.01-0.07,0.01-0.1,0.01c0.01,0,0.01,0.01,0.01,0.03c0.03-0.01,0.07-0.03,0.09-0.04
		c0.26-0.04,0.52-0.07,0.78-0.1c1.07-0.14,2.13,1,3.18,0.86c31.42-4.55,59.66-13.8,81.35-23.4c1.25-0.55,2.44,0.88,1.65,2
		C860.23,298.85,833.72,326.54,800.69,353.71z"/>
</g>
</svg>
