<?xml version="1.0" encoding="utf-8"?>
<!-- Generator: Adobe Illustrator 23.0.4, SVG Export Plug-In . SVG Version: 6.00 Build 0)  -->
<svg version="1.1" id="Layer_2" xmlns="http://www.w3.org/2000/svg" xmlns:xlink="http://www.w3.org/1999/xlink" x="0px" y="0px"
	 viewBox="0 0 953.73 341.62" style="enable-background:new 0 0 953.73 341.62;" xml:space="preserve">
<style type="text/css">
	.st0{fill:#231F20;stroke:#000000;stroke-miterlimit:10;}
	.st1{fill:#FFFFFF;stroke:#000000;stroke-miterlimit:10;}
	.st2{fill:#231F20;}
	.st3{fill:#FFFFFF;}
</style>
<path class="st0" d="M326.29,82.34c0,0,11.31-21.95,30.93-18.95c19.62,2.99,23.61,16.96,24.94,25.27
	c1.33,8.31-1.66,38.91,14.3,38.57c0,0,3.33,1.66,1.66,4.99c-1.66,3.33-4.99,2.99-4.99,2.99l-5.99-3.66l-6.32,1.66
	c0,0-7.65-1.66-8.98-10.31c0,0-9.51,19.95-9.41,23.61c0.1,3.66-9.21,25.61,7.75,30.93c0,0,11.64,0,8.65-13.63
	c0,0-6.98-14.3,5.32-18.95c0,0,7.65-0.33,7.98,8.98c0,0,3.46,33.92-29.7,40.9c0,0-40.47,8.37-42.47-65.82c0,0-0.33-29.95,2.33-31.28
	c0,0-3.66,2.66-9.98-3.33c0,0,0.33,6.98-8.31,3.99c0,0-3.99-9.31,8.65-9.31C325.29,88.99,326.29,82.34,326.29,82.34z"/>
<path class="st1" d="M346.57,76.68c0,0,7.32-0.33,0,12.64c0,0-2.66,4.99-7.65,2c0,0-3.66-2.33,1.33-10.64
	C340.26,80.67,343.7,74.97,346.57,76.68z"/>
<path class="st1" d="M364.53,87.66c0,0,5.99,2.99,1.33,11.31s-8.98,1.66-8.98,1.66s-2.66-2.66,1.66-10.31
	C358.55,90.32,360.21,86.99,364.53,87.66z"/>
<path class="st1" d="M349.83,97.63c0,0,0.74,7.98-2.92,9.64c0,0-3.66,4.99-6.65,2.66c0,0-2.99,2.66,1.66-8.98
	C341.92,100.96,346.09,94.64,349.83,97.63z"/>
<path class="st2" d="M227.08,11.19h7.65v10.97h12.97v7.65h-13.3l-0.33,11.31c0,0,20.95,5.99,23.94,13.3c0,0,8.65,7.32,9.31,23.94
	h10.31v9.2h-4.32l-9.98,9.26l-14.63,6.32l17.29-1.83l7.32-7.65h4.32l-6.98,70.17l-4.99-2.66l-13.3,8.31l-14.3-5.99l15.96,11.97
	l10.31-7.98l4.66,2.99l0.33,15.96h-77.15l-3.66-49.88l4.99,3.99l18.29-8.31l-16.96,3.33l-6.32-2.99l-5.99-54.2l10.31,0.33
	c0,0,1.33-17.62,11.64-26.27s21.95-10.31,21.95-10.31V29.15l-12.64,0.33V22.5l12.97-0.33L227.08,11.19z"/>
<path class="st2" d="M460.01,54.97c0,0,22.83,0.44,26.16,3.77l-3.55,18.4c0,0,6.87,3.77,5.32,7.32s-0.22,2.66-5.99,5.76l-2,15.3
	c0,0,15.74,4.21,15.08,8.42c0,0,12.01,7.54,0.02,37.24l-11.11,42.12c0,0,7.32,5.76,4.43,6.65c0,0,3.33,5.32-32.81,2.22
	s-32.37-11.31-32.37-11.31s0.22-3.1,5.76-3.33l-0.44-66.06c0,0,2.22-10.86,11.08-16.18c0,0,7.09-3.55,14.85-2.44l1.33-15.74
	c0,0-6.21-3.33-5.1-7.32s9.75-5.76,9.75-5.76L460.01,54.97z"/>
<path class="st3" d="M461.74,125.69c0,0,17.78-1.11,22.88,14.85v12.64c0,0-0.44,10.2-13.3,9.53l-4.21,4.88l-0.22,4.21
	c0,0-2.44,1.55-4.21-1.11v-3.1c0,0-0.89-1.55-2.44,0v3.55c0,0-0.67,1.11-3.1-0.44v-3.77c0,0-0.67-2.22-2.44,0v3.55
	c0,0-1.33,1.33-3.55-0.67v-5.1l-2.88-5.32c0,0-7.98-1.11-9.75-8.87v-12.41C438.51,138.11,445.68,120.8,461.74,125.69z"/>
<path class="st2" d="M467.11,141.65h5.32c0,0,8.65,4.21,6.87,10.2c-1.77,5.99-5.98,5.1-5.98,5.1s-4.44,1.55-7.99-5.54v-7.09
	L467.11,141.65z"/>
<path class="st2" d="M458.46,139.88h-5.54c0,0-8.65,4.9-6.87,8.66c1.77,3.76-1.57,4.2,6.09,6.42c7.66,2.22,7.66-8.87,7.66-8.87
	L458.46,139.88z"/>
<path class="st2" d="M461.56,152.96c0,0-3.1,0.07-2.66,4.13c0,0,0.89,2.07,2.66,2.07s2.44-2.07,2.44-2.07
	S463.53,151.98,461.56,152.96z"/>
<path class="st2" d="M550.8,161.16l36.36-2l1.77,37.24h16.41c0,0,2.44,1.33,1.33,3.1c-1.11,1.77-0.89,1.55-3.99,2.22
	c-3.1,0.67-12.41,4.21-11.53,5.1c0.89,0.89-0.67,7.54,1.33,7.98l1.77-5.99c0,0,17.74-4.43,16.41-7.76l-1.55-6.21l24.61-1.77
	l3.1,36.58l-43.01,3.33l2.44,42.12h-6.21c0,0-5.76,3.33-5.54,4.43c0.22,1.11,5.76-0.89,5.76-0.89l5.76,0.22l3.77,49.88l-35.91,2.44
	l-5.76-72.05l5.76,0.44c0,0,6.65,6.21,7.76,5.76c1.11-0.44-7.32-9.09-7.32-9.09h-6.43l-1.33-20.62l-44.34,3.33l-2.22-36.36
	l33.25-2.44c0,0-0.44,5.32,8.2,7.98c0,0,5.54,2.88,4.43,11.53c0,0,1.55,1.77,2.22,0c0,0,2-6.87-2.22-12.86c0,0-11.08-3.77-9.75-6.87
	c0,0,7.98,0.89,7.76,0C553.68,199.07,550.8,161.16,550.8,161.16z"/>
<path class="st2" d="M72.11,46.18c0,0,1.33,3.33-2.88,3.99c-4.21,0.67-7.09-6.21-7.09-6.21s2.44-5.99,11.75-9.31
	c0,0,11.75,1.11,15.52,13.52c0,0-1.55,21.5,9.98,13.75l-1.11,3.33c0,0,12.64,0.67,13.08,2.44c0,0,3.1-2.88,12.41,0
	c0,0,36.36,15.96,32.81,47.22c0,0,1.33,50.55-37.91,53.21c0,0-2,6.43-13.08,2.44c0,0-2,4.16-9.09,1.31c0,0-3.77,3.79-11.31-1.08
	c0,0-6.43,5.99-14.85-1.33c0,0-2.66,4.88-7.09,0.67c0,0-6.21,4.66-8.42-1.55c0,0-35.69,4.66-41.9-50.32c0,0-0.44-37.02,38.57-50.99
	c0,0,7.54-3.1,10.64,0.67c0,0,2-2.66,10.64-2L71,63.1c0,0,2.66-1.48,4.66,0c0,0,7.98-1.62,2.44-20.69c0,0-4.66-5.76-10.2,1.33
	C67.89,43.74,66.12,49.95,72.11,46.18z"/>
<path class="st3" d="M42.84,125.99c0,0,11.97,9.09,21.5,9.31v7.76h9.98v-5.32c0,0,11.97,1.55,23.94,0v5.32h9.31v-8.54
	c0,0,11.53-0.55,19.51-8.54c0,0-1.77,25.72-37.02,26.38l-0.22-4.66l-9.53-0.22l-0.22,5.99C80.09,153.48,51.71,153.04,42.84,125.99z"
	/>
<polygon class="st3" points="60.8,90.96 76.54,112.91 62.79,112.91 62.13,105.37 54.59,105.6 54.59,112.91 41.73,112.91 "/>
<polygon class="st3" points="112.9,89.63 128.64,112.02 117.11,112.02 116.22,105.6 107.8,105.6 107.8,112.02 94.94,112.02 "/>
<path class="st2" d="M425.83,195.02h5.76v46.96c0,0,17.51,1.37,23.06,10.9c0,0,11.31-8.87,14.63-7.09c0,0,9.98-1.11,28.6,5.1
	c0,0,3.33,4.66-1.33,5.99c0,0-27.05-5.32-26.6-3.77c0,0-11.08,4.88-9.31,7.98c0,0,1.33,2.44,9.98-3.1c0,0,30.82,8.42,31.26,11.53
	c0,0,2.44,6.43-3.99,6.21c0,0-27.05-8.42-27.71-9.31c-0.67-0.89-9.08,5.32-6.09,7.09c0,0,6.31-2.44,7.86-1.55
	c1.55,0.89,19.51,9.09,28.82,17.96c0,0,2.22,7.54-5.76,5.32c0,0-13.75-6.65-24.83-14.85c0,0-12.64,4.66-11.31,6.43
	s10.42,1.11,12.64,3.1c2.22,2,18.18,16.85,10.42,18.18c0,0-1.33,3.33-16.63-13.3l-12.41-0.89c0,0-20.4,21.06-50.55-1.11l-9.98,0.89
	c0,0-8.87,13.62-13.08,14.68c0,0-6.87-0.94-3.55-6.04c3.33-5.1,12.86-14.63,12.86-14.63s7.54-1.33,8.42-0.44
	c0.89,0.89-1.33-8.2-8.87-7.32c0,0-21.73,13.97-26.16,14.85c0,0-6.65-0.44-2.66-7.32c0,0,26.38-18.62,28.82-16.18
	c0,0,4.21,0.22,4.66,1.33s1.77-5.76-4.43-6.65l-28.82,9.53c0,0-5.76-3.33-2.44-7.76c3.33-4.43,31.48-10.64,31.48-10.64
	s6.43,4.21,7.32,2.88s3.55-1.06-6.87-8.29c0,0-25.72,5.85-27.71,4.52c-2-1.33-1.33-6.21,0.44-6.65c1.77-0.44,19.95-6.43,27.49-5.1
	c7.54,1.33,12.86,7.23,12.86,7.23s7.32-9.97,24.16-9.71L425.83,195.02z"/>
<path class="st3" d="M420.73,258.2c0,0-5.99,0.89-7.76,7.09v8.87c0,0,3.77,8.2,8.87,6.43s7.36-5.99,7.36-5.99s1.73,4.21,6.83,4.88
	c0,0,8.87-0.22,8.42-11.08c0,0,1.55-6.65-8.42-9.09c0,0-5.46,0-6.83,4.66C429.2,263.97,425.1,256.2,420.73,258.2z"/>
<path class="st2" d="M440.02,269.36"/>
<path class="st2" d="M421.18,264.19c0,0-4.43,1.03-3.77,5.17c0.67,4.14,3.77,5.69,3.77,5.69s5.32-1.33,4.43-6.21
	C425.61,268.84,426.05,263.74,421.18,264.19z"/>
<path class="st2" d="M436.7,265.07c0,0-3.77,1.52-3.33,4.53s3.33,4.56,3.33,4.56s2.22-0.74,3.33-4.81
	C441.13,265.3,436.7,265.07,436.7,265.07z"/>
<path class="st2" d="M582.97,59.34c0,0-35.84,17.62-25.74,46.89c10.09,29.26,33,27.05,48.76,29.49c0,0-3.74,11.08-30.62,11.42
	c-26.88,0.33-47.69-16.79-46.56-50.6C528.82,96.53,535.8,56.02,582.97,59.34z"/>
<path class="st2" d="M585.35,100.69"/>
<path class="st2" d="M789.01,32.67l9.75-2.22l11.31,160.28c0,0,0.22,3.33,6.21-3.1c0,0,7.32,0.67-2.22,24.61c0,0-2,2.22,3.33,1.33
	c0,0-2,13.75-3.77,14.41l21.5,51.43c0,0-5.32,1.11-5.54-2.44c0,0-0.67,6.65-2,4.66c-1.33-2-2.44-8.42-2.44-8.42
	s-0.67,8.87-1.33,9.98c-0.67,1.11-1.77,1.33-2.44,0c-0.67-1.33,0.67-9.98-0.89-10.64c-1.55-0.67-1.11,13.97-1.11,13.97s0,3.1-3.33,0
	c0,0,0.89-13.08-2-10.42c0,0-0.67,11.97-3.1,10.86l-1.33-11.08c0,0-3.55,9.09-4.88,7.76c-1.33-1.33-0.44-8.2-0.44-8.2
	s-4.66,11.08-5.76,8.87s-1.55-8.87-1.55-8.87s-2.44,11.31-4.66,8.65l-0.67-3.77c0,0-0.89,4.21-2.66,3.55s0-2.44,0-2.44l-2,3.77
	c0,0-1.77-3.77-0.89-4.88c0.89-1.11,16.85-53.87,16.85-53.87s-2-1.11-3.55-11.75c0,0,2.66,1.11,3.33,0
	c0.67-1.11,2.22-1.77-8.2-16.18c0,0-0.89-5.99,0.89-6.65c0,0,2.88,6.21,9.31,0.67C804.75,192.51,792.33,35.33,789.01,32.67z"/>
<path class="st2" d="M893.11,51.2c0,0,31.26-1.66,29.93,46.89c0,0,2.83,43.73,20.12,53.71c0,0,0.83,5.65-7.65,7.48
	c-8.48,1.83-21.95-1.83-19.62-1.5c2.33,0.33-12.14,10.48-19.95,11.97c-7.81,1.5-20.28-7.81-20.28-7.81s-15.3-1.16-14.96,3.33
	c0,0-15.46-45.89-3.99-83.47C856.7,81.8,869,51.7,893.11,51.2z"/>
<path class="st3" d="M896.77,74.48c0,0,8.15-0.83,10.31,5.32c2.16,6.15-2.33,11.47-5.15,10.97s-7.98,2.66-10.48-7.15
	C891.45,83.63,890.29,77.31,896.77,74.48z"/>
<path class="st3" d="M872.83,72.65c0.49-0.08,7.32,0.5,8.65,8.31c0,0,0.67,8.15-7.81,8.31c-8.48,0.17-8.48-9.14-8.48-9.14
	S865.35,73.82,872.83,72.65z"/>
<path class="st3" d="M884.13,92.11c0,0,5.82-1,7.23,4.49c0,0-0.75,4.32-7.23,3.99s-5.82-5.49-5.82-5.49S880.23,91.64,884.13,92.11z"
	/>
<path class="st2" d="M658.21,60.19c0,0,13.3-11.75,42.34-6.21l12.41-15.52c0,0,4.66,3.99,8.65,22.61c3.99,18.62,0,25.49,0,25.49
	s11.75-1.77,17.51,6.65c0,0-9.09-4.88-19.73-3.99c0,0,0.44,1.11-2.22,3.99c0,0,13.3,0,17.74,12.19c0,0-12.86-11.97-19.51-9.98
	l-2,1.77c0,0,16.41,5.1,15.3,19.51c0,0-3.33-13.52-17.74-17.96c0,0-1.55,3.55-15.08,7.32c0,0,35.47,64.29,21.95,95.55
	c0,0,15.74-0.44,13.52-21.95l0.89-52.76c0,0,6.65-31.04,24.83-20.62c0,0,7.98,5.54,0,13.75c0,0-14.19,7.32-13.52,17.07l-3.1,50.77
	c0,0-1.77,14.85-25.05,19.95c0,0-3.33,13.52-23.5,11.31c0,0-29.26,7.54-29.49-35.25c0,0,4.21-16.41,14.41-36.8
	c0,0,9.31-21.28-0.22-37.91c0,0-18.62,2.22-27.71-9.09c0,0-11.31,9.75-10.64,23.28c0,0-8.65-7.54,8.2-25.05l-1.55-2.44
	c0,0-12.86,3.77-19.07,13.3c0,0,1.11-11.97,17.07-15.52c0,0-2.22-2.88-1.11-3.77c1.11-0.89-16.41,0.22-20.84,4.21
	c-4.43,3.99,2.22-7.76,19.07-7.09c0,0-5.54-12.86,3.33-40.57L658.21,60.19z"/>
<path class="st3" d="M697.45,64.62c0,0,11.53,0.89,9.53,10.42s-9.53,8.42-9.53,8.42s-9.31,0.04-8.42-9.4S697.45,64.62,697.45,64.62z
	"/>
<path class="st3" d="M661.98,69.06c0,0,8.65-0.67,9.75,8.87c1.11,9.53-9.75,9.09-9.75,9.09s-7.76,0.66-8.65-8.98
	C653.34,78.03,652.67,69.72,661.98,69.06z"/>
<path class="st2" d="M695.46,69.05c0,0,3.28,0.49,2.64,5.02c-0.64,4.52-2.64,5.86-2.64,5.86s-3.55-1.07-3.33-5.86
	C692.35,69.28,695.46,69.05,695.46,69.05z"/>
<path class="st2" d="M659.77,74.07c0,0,3.62,0.98,2.81,5.86c-0.81,4.88-2.81,4.66-2.81,4.66s-3.1,0.13-3.1-5.25
	C656.66,73.94,659.77,74.07,659.77,74.07z"/>
</svg>
